<svg width="43" height="40" viewBox="0 0 43 40" fill="none" xmlns="http://www.w3.org/2000/svg">
<path d="M41.6402 15.4231L41.6406 15.4242C41.7918 15.8902 41.6516 16.3983 41.2827 16.7211L41.2819 16.7218L32.1756 24.7064L31.7279 25.099L31.8597 25.6797L34.5448 37.5076C34.6532 37.9861 34.4676 38.4796 34.0706 38.7674L34.0705 38.7674C33.6743 39.0547 33.1499 39.0765 32.7345 38.8266L32.7322 38.8252L22.3441 32.6143L21.831 32.3076L21.3179 32.6142L10.9261 38.8251L10.9256 38.8253C10.7292 38.9429 10.5152 39 10.3019 39C10.0535 39 9.8048 38.923 9.58822 38.7665C9.19323 38.4809 9.00671 37.9887 9.1152 37.5076C9.11523 37.5074 9.11527 37.5073 9.1153 37.5071L11.8003 25.6797L11.9321 25.0991L11.4845 24.7065L2.37822 16.7203L2.37632 16.7186C2.01003 16.399 1.86961 15.8908 2.02115 15.4248C2.17255 14.9591 2.58267 14.6311 3.06958 14.5859C3.06975 14.5859 3.06992 14.5859 3.07009 14.5859L15.1176 13.4921L15.7121 13.4381L15.9467 12.8892L20.71 1.74216C20.7101 1.74188 20.7102 1.74161 20.7103 1.74133C20.9049 1.28859 21.3443 1 21.831 1C22.3179 1 22.7574 1.2889 22.9518 1.73992C22.952 1.74029 22.9521 1.74066 22.9523 1.74103L27.7152 12.8891L27.9498 13.4381L28.5443 13.4921L40.5915 14.586L40.5922 14.5861C41.0793 14.63 41.4902 14.9589 41.6402 15.4231Z" stroke="#9854AF" stroke-width="2"/>
</svg>
